<svg width="245" height="22" viewBox="0 0 245 22" fill="none" xmlns="http://www.w3.org/2000/svg">
<path d="M2.93387 20.3V10.584H10.2139V9.912H2.93387V1.484H13.4059V0.783998H0.385873V21H13.6579V20.3H2.93387ZM18.1713 0.783998V21H19.0953V2.268H19.2073L25.7593 20.524H27.5513L34.2993 2.268H34.4393V21H36.9313V0.783998H33.8233L27.5513 17.612H27.4393L21.3353 0.783998H18.1713ZM42.7107 0.783998V21H43.6347V2.268H43.7467L50.2987 20.524H52.0907L58.8387 2.268H58.9787V21H61.4707V0.783998H58.3627L52.0907 17.612H51.9787L45.8747 0.783998H42.7107ZM73.3261 3.836H73.4661L77.2181 13.44H69.5181L73.3261 3.836ZM80.1861 21H82.9581L74.8941 0.783998H73.6621L65.4861 21H66.5221L69.2381 14.14H77.4981L80.1861 21ZM96.537 20.3V0.783998H93.989V21H107.485V20.3H96.537ZM114.186 20.3V10.584H121.466V9.912H114.186V1.484H124.658V0.783998H111.638V21H124.91V20.3H114.186ZM146.73 21.028H148.326L154.542 0.783998H153.618L148.438 17.864H148.27L142.586 0.783998H141.242L135.81 17.864H135.67L130.378 0.783998H127.662L134.102 21.028H135.726L141.046 4.228H141.186L146.73 21.028ZM161.352 0.783998H158.776V21H161.352V0.783998ZM166.426 19.852C167.63 20.664 169.478 21.28 171.802 21.28C176.058 21.28 178.942 19.264 178.942 15.484C178.942 11.844 176.73 10.668 172.978 9.24C170.234 8.204 168.498 7.336 168.498 4.76C168.498 2.688 170.178 1.232 172.866 1.232C174.938 1.232 176.31 1.68 177.682 2.576V1.568C176.562 0.895998 175.162 0.503999 172.866 0.503999C169.086 0.503999 166.538 2.8 166.538 5.852C166.538 9.408 168.778 10.612 172.054 11.872C175.218 13.076 176.982 14.168 176.982 16.66C176.982 19.208 175.134 20.552 171.802 20.552C169.898 20.552 167.938 19.964 166.426 18.788V19.852ZM197.734 21H200.282V0.783998H197.734V10.136H186.422V0.783998H183.846V21H186.422V10.836H197.734V21ZM212.137 3.836H212.277L216.029 13.44H208.329L212.137 3.836ZM218.997 21H221.769L213.705 0.783998H212.473L204.297 21H205.333L208.049 14.14H216.309L218.997 21ZM225.843 0.783998V21H226.767V2.268H226.879L233.431 20.524H235.223L241.971 2.268H242.111V21H244.603V0.783998H241.495L235.223 17.612H235.111L229.007 0.783998H225.843Z" fill="white"/>
</svg>
