<svg width="71" height="12" viewBox="0 0 71 12" fill="none" xmlns="http://www.w3.org/2000/svg">
<path d="M9.48699 7.12665L12.1504 4.96919C12.5272 4.6628 12.3323 4.0628 11.8386 4.03726L8.40861 3.83301C8.20073 3.82024 8.01884 3.69258 7.94089 3.50109L6.68062 0.335109C6.49872 -0.111703 5.86209 -0.111703 5.6802 0.335109L4.41993 3.48832C4.34198 3.67982 4.16008 3.80748 3.95221 3.82024L0.509208 4.0245C0.015495 4.05003 -0.179392 4.65004 0.197389 4.95642L2.86084 7.10112C3.01675 7.22878 3.0947 7.4458 3.04273 7.63729L2.17224 10.9182C2.05531 11.3777 2.56201 11.748 2.97777 11.4926L5.87509 9.6671C6.05698 9.5522 6.27785 9.5522 6.44675 9.6671L9.35706 11.4926C9.77282 11.748 10.2795 11.3777 10.1626 10.9182L9.2921 7.65006C9.25312 7.45857 9.31808 7.25431 9.48699 7.12665Z" fill="#524EB7"/>
<path d="M24.1491 7.12665L26.8125 4.96919C27.1893 4.6628 26.9944 4.0628 26.5007 4.03726L23.0707 3.83301C22.8628 3.82024 22.6809 3.69258 22.603 3.50109L21.3427 0.335109C21.1608 -0.111703 20.5242 -0.111703 20.3423 0.335109L19.082 3.48832C19.0041 3.67982 18.8222 3.80748 18.6143 3.82024L15.1713 4.0245C14.6776 4.05003 14.4827 4.65004 14.8595 4.95642L17.5229 7.10112C17.6789 7.22878 17.7568 7.4458 17.7048 7.63729L16.8343 10.9182C16.7174 11.3777 17.2241 11.748 17.6399 11.4926L20.5372 9.6671C20.7191 9.5522 20.94 9.5522 21.1089 9.6671L24.0192 11.4926C24.4349 11.748 24.9416 11.3777 24.8247 10.9182L23.9542 7.65006C23.9152 7.45857 23.9802 7.25431 24.1491 7.12665Z" fill="#524EB7"/>
<path d="M38.8132 7.12665L41.4766 4.96919C41.8534 4.6628 41.6585 4.0628 41.1648 4.03726L37.7348 3.83301C37.5269 3.82024 37.345 3.69258 37.2671 3.50109L36.0068 0.335109C35.8249 -0.111703 35.1883 -0.111703 35.0064 0.335109L33.7461 3.48832C33.6682 3.67982 33.4863 3.80748 33.2784 3.82024L29.8354 4.0245C29.3417 4.05003 29.1468 4.65004 29.5236 4.95642L32.187 7.10112C32.3429 7.22878 32.4209 7.4458 32.3689 7.63729L31.4984 10.9182C31.3815 11.3777 31.8882 11.748 32.3039 11.4926L35.2013 9.6671C35.3832 9.5522 35.604 9.5522 35.7729 9.6671L38.6832 11.4926C39.099 11.748 39.6057 11.3777 39.4888 10.9182L38.6183 7.65006C38.5793 7.45857 38.6443 7.25431 38.8132 7.12665Z" fill="#524EB7"/>
<path d="M53.4753 7.12665L56.1387 4.96919C56.5155 4.6628 56.3206 4.0628 55.8269 4.03726L52.3969 3.83301C52.189 3.82024 52.0071 3.69258 51.9292 3.50109L50.6689 0.335109C50.487 -0.111703 49.8504 -0.111703 49.6685 0.335109L48.4082 3.48832C48.3303 3.67982 48.1484 3.80748 47.9405 3.82024L44.4975 4.0245C44.0038 4.05003 43.8089 4.65004 44.1857 4.95642L46.8491 7.10112C47.005 7.22878 47.083 7.4458 47.031 7.63729L46.1605 10.9182C46.0436 11.3777 46.5503 11.748 46.9661 11.4926L49.8634 9.6671C50.0453 9.5522 50.2661 9.5522 50.435 9.6671L53.3453 11.4926C53.7611 11.748 54.2678 11.3777 54.1509 10.9182L53.2804 7.65006C53.2414 7.45857 53.3064 7.25431 53.4753 7.12665Z" fill="#524EB7"/>
<path d="M68.1393 7.12665L70.8028 4.96919C71.1796 4.6628 70.9847 4.0628 70.491 4.03726L67.061 3.83301C66.8531 3.82024 66.6712 3.69258 66.5932 3.50109L65.333 0.335109C65.1511 -0.111703 64.5144 -0.111703 64.3325 0.335109L63.0723 3.48832C62.9943 3.67982 62.8124 3.80748 62.6045 3.82024L59.1616 4.0245C58.6678 4.05003 58.473 4.65004 58.8497 4.95642L61.5132 7.10112C61.6691 7.22878 61.747 7.4458 61.6951 7.63729L60.8246 10.9182C60.7077 11.3777 61.2144 11.748 61.6301 11.4926L64.5274 9.6671C64.7093 9.5522 64.9302 9.5522 65.0991 9.6671L68.0094 11.4926C68.4252 11.748 68.9319 11.3777 68.8149 10.9182L67.9444 7.65006C67.9055 7.45857 67.9704 7.25431 68.1393 7.12665Z" fill="#524EB7"/>
</svg>
